<mxfile host="app.diagrams.net" modified="2023-09-02T17:51:21.391Z" agent="Mozilla/5.0 (Windows NT 10.0; Win64; x64) AppleWebKit/537.36 (KHTML, like Gecko) Chrome/116.0.0.0 Safari/537.36" version="21.7.2" etag="2A5_2Ah_oEWIY-wWQcBT" type="github">
  <diagram name="PÃ¡gina-1" id="LmaW3b6RDVu_Y6F2I-ss">
    <mxGraphModel>
      <root>
        <mxCell id="0" />
        <mxCell id="1" parent="0" />
      </root>
    </mxGraphModel>
  </diagram>
</mxfile>
